#!OML:ASF F:\VICON\USERDATA\INSTALL\rory3\rory3.ASF
:FULLY-SPECIFIED
:DEGREES
2745
root 1.10462 18.7252 -0.472145 -175.118 258.986 -184.877
lowerback 6.55037 2.6856 -5.26609
upperback 2.28249 3.13839 -1.61328
thorax -1.50219 1.53142 1.03799
lowerneck -11.2265 5.56145 -0.624906
upperneck 12.2262 6.60881 6.83336
head 5.26448 3.66523 2.73792
rclavicle 2.18663e-015 -3.97569e-015
rhumerus 320.457 17.4543 -422.91
rradius 66.1152
rwrist 9.0645
rhand -25.1003 6.5396
rfingers 7.12502
rthumb 1.41473 -23.4355
lclavicle 2.18663e-015 -3.97569e-015
lhumerus -27.7883 -24.9127 85.5489
lradius 75.6317
lwrist 54.0715
lhand -23.6626 29.5579
lfingers 7.12502
lthumb 2.80316 -300.481
rfemur -14.4603 11.3314 11.4831
rtibia 38.1852
rfoot -13.6401 -24.3641
rtoes 4.29927
lfemur -5.0615 -8.48539 -15.3775
ltibia 22.8354
lfoot -15.1584 14.6873
ltoes -10.7728
2746
root 1.09475 18.7344 -0.451077 -174.855 258.444 -185.185
lowerback 6.56618 2.64629 -5.11487
upperback 2.20276 3.09423 -1.61416
thorax -1.58315 1.5136 0.954007
lowerneck -11.234 5.43847 -0.569955
upperneck 12.2807 6.43607 6.79217
head 5.29331 3.58115 2.70638
rclavicle -4.69132e-014 8.74653e-015
rhumerus 320.138 16.8353 -422.995
rradius 65.3014
rwrist 8.32638
rhand -25.6021 4.13068
rfingers 7.12502
rthumb 0.930037 -25.847
lclavicle -4.69132e-014 8.74653e-015
lhumerus -28.1163 -24.2817 85.2526
lradius 74.8253
lwrist 51.3416
lhand -23.464 30.2804
lfingers 7.12502
lthumb 2.99504 -299.761
rfemur -14.2488 11.5738 11.433
rtibia 37.9131
rfoot -13.6659 -22.6563
rtoes 3.93872
lfemur -4.99364 -8.66635 -15.3081
ltibia 22.6755
lfoot -15.0088 14.4241
ltoes -10.7625
2747
root 1.08047 18.7412 -0.431807 -174.63 257.874 -185.467
lowerback 6.53627 2.58038 -4.97829
upperback 2.13772 3.0199 -1.55078
thorax -1.62626 1.48 0.949351
lowerneck -11.2451 5.32038 -0.796399
upperneck 12.353 6.29941 6.88839
head 5.31181 3.51211 2.765
rclavicle -5.1684e-015 -1.11319e-014
rhumerus 319.909 16.3038 -422.901
rradius 64.7385
rwrist 7.88265
rhand -26.0153 3.25524
rfingers 7.12502
rthumb 0.530937 -26.7238
lclavicle -5.1684e-015 -1.11319e-014
lhumerus -28.6138 -24.2493 85.3354
lradius 74.6059
lwrist 51.6104
lhand -27.6762 30.8693
lfingers 7.12502
lthumb -1.07319 -299.154
rfemur -13.9496 11.9644 11.4168
rtibia 37.5237
rfoot -13.4265 -20.9215
rtoes 2.1639
lfemur -4.88768 -9.00512 -15.2377
ltibia 22.523
lfoot -14.9824 14.1715
ltoes -10.5404
2748
root 1.06256 18.7454 -0.414017 -175.083 257.33 -185.065
lowerback 6.46845 2.53795 -5.02304
upperback 2.10055 2.96659 -1.51592
thorax -1.62807 1.4549 1.0166
lowerneck -11.3438 5.19864 -0.898913
upperneck 12.4812 6.15102 6.85741
head 5.37207 3.43577 2.76837
rclavicle -3.16068e-014 2.38542e-014
rhumerus 319.79 15.6034 -422.61
rradius 64.2756
rwrist 8.36082
rhand -25.7687 2.71352
rfingers 7.12502
rthumb 0.769175 -27.2648
lclavicle -3.16068e-014 2.38542e-014
lhumerus -28.8549 -23.9238 85.2443
lradius 73.8624
lwrist 49.81
lhand -28.49 31.355
lfingers 7.12502
lthumb -1.85916 -298.673
rfemur -13.5793 12.3803 11.2604
rtibia 37.0216
rfoot -12.8894 -19.3388
rtoes -2.34698
lfemur -4.78098 -9.2383 -15.3185
ltibia 22.3994
lfoot -14.8796 13.9931
ltoes -10.8388
2749
root 1.04705 18.7499 -0.39379 -174.944 256.947 -185.245
lowerback 6.37932 2.53255 -4.86748
upperback 2.05252 2.97569 -1.51801
thorax -1.62091 1.46107 0.929953
lowerneck -11.504 5.10751 -0.766449
upperneck 12.6744 6.00951 6.74737
head 5.47372 3.369 2.71402
rclavicle -2.51463e-014 1.27222e-014
rhumerus 319.577 15.2122 -422.652
rradius 64.0837
rwrist 7.85418
rhand -26.5041 1.6879
rfingers 7.12502
rthumb 0.0588411 -28.2918
lclavicle -2.51463e-014 1.27222e-014
lhumerus -28.9271 -23.472 84.9783
lradius 72.9091
lwrist 47.0816
lhand -27.6382 31.9395
lfingers 7.12502
lthumb -1.03649 -298.083
rfemur -13.2866 12.8751 11.1943
rtibia 36.4592
rfoot -12.6397 -17.8051
rtoes -5.68014
lfemur -4.66988 -9.50682 -15.3052
ltibia 22.2564
lfoot -14.8263 13.9954
ltoes -10.9957
2750
root 1.03566 18.7531 -0.375651 -175.706 256.528 -184.451
lowerback 6.29848 2.48918 -4.89023
upperback 1.98151 2.91887 -1.5899
thorax -1.64366 1.43473 0.875045
lowerneck -11.5587 5.04689 -0.677163
upperneck 12.7615 5.91688 6.67908
head 5.51931 3.32469 2.67612
rclavicle -3.598e-014 3.81667e-014
rhumerus 319.489 14.8047 -422.561
rradius 63.9673
rwrist 7.91433
rhand -26.2542 2.08172
rfingers 7.12502
rthumb 0.300239 -27.8978
lclavicle -3.598e-014 3.81667e-014
lhumerus -28.9883 -23.2376 84.7029
lradius 72.1276
lwrist 44.7109
lhand -26.4825 32.6619
lfingers 7.12502
lthumb 0.0797728 -297.358
rfemur -13.0544 13.2677 10.878
rtibia 35.8676
rfoot -12.6294 -16.4351
rtoes -6.33465
lfemur -4.65426 -9.81633 -15.5243
ltibia 22.141
lfoot -14.7872 13.9207
ltoes -10.9945
